<svg id="visual" viewBox="0 0 900 600" width="900" height="600" xmlns="http://www.w3.org/2000/svg" xmlns:xlink="http://www.w3.org/1999/xlink" version="1.1"><path d="M0 97L13.7 104C27.3 111 54.7 125 82 140C109.3 155 136.7 171 163.8 172C191 173 218 159 245.2 147C272.3 135 299.7 125 327 133C354.3 141 381.7 167 409 185C436.3 203 463.7 213 491 217C518.3 221 545.7 219 573 221C600.3 223 627.7 229 654.8 223C682 217 709 199 736.2 187C763.3 175 790.7 169 818 167C845.3 165 872.7 167 886.3 168L900 169L900 0L886.3 0C872.7 0 845.3 0 818 0C790.7 0 763.3 0 736.2 0C709 0 682 0 654.8 0C627.7 0 600.3 0 573 0C545.7 0 518.3 0 491 0C463.7 0 436.3 0 409 0C381.7 0 354.3 0 327 0C299.7 0 272.3 0 245.2 0C218 0 191 0 163.8 0C136.7 0 109.3 0 82 0C54.7 0 27.3 0 13.7 0L0 0Z" fill="#6198ff"></path><path d="M0 211L13.7 218C27.3 225 54.7 239 82 250C109.3 261 136.7 269 163.8 278C191 287 218 297 245.2 291C272.3 285 299.7 263 327 264C354.3 265 381.7 289 409 298C436.3 307 463.7 301 491 311C518.3 321 545.7 347 573 351C600.3 355 627.7 337 654.8 323C682 309 709 299 736.2 298C763.3 297 790.7 305 818 301C845.3 297 872.7 281 886.3 273L900 265L900 167L886.3 166C872.7 165 845.3 163 818 165C790.7 167 763.3 173 736.2 185C709 197 682 215 654.8 221C627.7 227 600.3 221 573 219C545.7 217 518.3 219 491 215C463.7 211 436.3 201 409 183C381.7 165 354.3 139 327 131C299.7 123 272.3 133 245.2 145C218 157 191 171 163.8 170C136.7 169 109.3 153 82 138C54.7 123 27.3 109 13.7 102L0 95Z" fill="#3c80ff"></path><path d="M0 325L13.7 328C27.3 331 54.7 337 82 336C109.3 335 136.7 327 163.8 331C191 335 218 351 245.2 358C272.3 365 299.7 363 327 373C354.3 383 381.7 405 409 408C436.3 411 463.7 395 491 395C518.3 395 545.7 411 573 409C600.3 407 627.7 387 654.8 381C682 375 709 383 736.2 390C763.3 397 790.7 403 818 392C845.3 381 872.7 353 886.3 339L900 325L900 263L886.3 271C872.7 279 845.3 295 818 299C790.7 303 763.3 295 736.2 296C709 297 682 307 654.8 321C627.7 335 600.3 353 573 349C545.7 345 518.3 319 491 309C463.7 299 436.3 305 409 296C381.7 287 354.3 263 327 262C299.7 261 272.3 283 245.2 289C218 295 191 285 163.8 276C136.7 267 109.3 259 82 248C54.7 237 27.3 223 13.7 216L0 209Z" fill="#0066ff"></path><path d="M0 499L13.7 504C27.3 509 54.7 519 82 524C109.3 529 136.7 529 163.8 533C191 537 218 545 245.2 544C272.3 543 299.7 533 327 530C354.3 527 381.7 531 409 533C436.3 535 463.7 535 491 531C518.3 527 545.7 519 573 514C600.3 509 627.7 507 654.8 506C682 505 709 505 736.2 507C763.3 509 790.7 513 818 517C845.3 521 872.7 525 886.3 527L900 529L900 323L886.3 337C872.7 351 845.3 379 818 390C790.7 401 763.3 395 736.2 388C709 381 682 373 654.8 379C627.7 385 600.3 405 573 407C545.7 409 518.3 393 491 393C463.7 393 436.3 409 409 406C381.7 403 354.3 381 327 371C299.7 361 272.3 363 245.2 356C218 349 191 333 163.8 329C136.7 325 109.3 333 82 334C54.7 335 27.3 329 13.7 326L0 323Z" fill="#0059dd"></path><path d="M0 601L13.7 601C27.3 601 54.7 601 82 601C109.3 601 136.7 601 163.8 601C191 601 218 601 245.2 601C272.3 601 299.7 601 327 601C354.3 601 381.7 601 409 601C436.3 601 463.7 601 491 601C518.3 601 545.7 601 573 601C600.3 601 627.7 601 654.8 601C682 601 709 601 736.2 601C763.3 601 790.7 601 818 601C845.3 601 872.7 601 886.3 601L900 601L900 527L886.3 525C872.7 523 845.3 519 818 515C790.7 511 763.3 507 736.2 505C709 503 682 503 654.8 504C627.7 505 600.3 507 573 512C545.7 517 518.3 525 491 529C463.7 533 436.3 533 409 531C381.7 529 354.3 525 327 528C299.7 531 272.3 541 245.2 542C218 543 191 535 163.8 531C136.7 527 109.3 527 82 522C54.7 517 27.3 507 13.7 502L0 497Z" fill="#004cbb"></path></svg>